<svg width="34" height="34" viewBox="0 0 34 34" fill="none" xmlns="http://www.w3.org/2000/svg">
<path fill-rule="evenodd" clip-rule="evenodd" d="M7.51661 11.767C6.93861 12.345 6.93861 13.2828 7.51661 13.8608L15.8749 22.2375C16.0265 22.3899 16.2094 22.5072 16.4111 22.5814C16.6127 22.6555 16.8282 22.6847 17.0423 22.6668C17.242 22.6714 17.4405 22.6353 17.6259 22.5608C17.8112 22.4863 17.9794 22.3749 18.1204 22.2333L26.4844 13.8608C26.7617 13.583 26.9175 13.2064 26.9175 12.8139C26.9175 12.4213 26.7617 12.0448 26.4844 11.767C26.3471 11.6295 26.1842 11.5205 26.0048 11.4462C25.8254 11.3718 25.6331 11.3335 25.4389 11.3335C25.2447 11.3335 25.0524 11.3718 24.873 11.4462C24.6936 11.5205 24.5306 11.6295 24.3934 11.767L16.9984 19.1719L9.60761 11.767C9.4705 11.6296 9.30764 11.5206 9.12836 11.4462C8.94909 11.3719 8.7569 11.3336 8.56282 11.3336C8.36873 11.3336 8.17655 11.3719 7.99727 11.4462C7.81799 11.5206 7.65372 11.6296 7.51661 11.767Z" fill="white"/>
</svg>
